<svg width="157" height="32" viewBox="0 0 157 32" fill="none" xmlns="http://www.w3.org/2000/svg">
<path d="M13.1999 2.76001L22.9599 27.92C23.3599 28.9333 23.8133 29.6133 24.3199 29.96C24.8266 30.28 25.2933 30.4533 25.7199 30.48V31.28C25.1866 31.2267 24.5333 31.2 23.7599 31.2C22.9866 31.1733 22.2133 31.16 21.4399 31.16C20.3999 31.16 19.4266 31.1733 18.5199 31.2C17.6133 31.2 16.8799 31.2267 16.3199 31.28V30.48C17.6799 30.4267 18.5466 30.2 18.9199 29.8C19.2933 29.3733 19.2133 28.48 18.6799 27.12L11.2399 7.24001L11.8799 6.72001L4.91994 24.8C4.49327 25.8667 4.23994 26.7733 4.15994 27.52C4.07994 28.24 4.14661 28.8133 4.35994 29.24C4.59994 29.6667 4.98661 29.9733 5.51994 30.16C6.07994 30.3467 6.77327 30.4533 7.59994 30.48V31.28C6.85327 31.2267 6.06661 31.2 5.23994 31.2C4.43994 31.1733 3.69327 31.16 2.99994 31.16C2.33327 31.16 1.75994 31.1733 1.27994 31.2C0.826606 31.2 0.399939 31.2267 -6.10352e-05 31.28V30.48C0.533272 30.3467 1.07994 30.04 1.63994 29.56C2.19994 29.0533 2.70661 28.2 3.15994 27L12.5599 2.76001C12.6666 2.76001 12.7733 2.76001 12.8799 2.76001C12.9866 2.76001 13.0933 2.76001 13.1999 2.76001ZM18.0799 19.76V20.56H6.15994L6.55994 19.76H18.0799Z" fill="white"/>
<path d="M39.16 10.1201C39.88 10.1201 40.5067 10.2668 41.04 10.5601C41.6 10.8535 42.0267 11.2401 42.32 11.7201C42.64 12.1735 42.8 12.6935 42.8 13.2801C42.8 13.9468 42.5867 14.5335 42.16 15.0401C41.76 15.5468 41.2134 15.8001 40.52 15.8001C39.96 15.8001 39.4667 15.6268 39.04 15.2801C38.6134 14.9068 38.4 14.3868 38.4 13.7201C38.4 13.2135 38.5334 12.7868 38.8 12.4401C39.0934 12.0668 39.4134 11.7735 39.76 11.5601C39.5734 11.2935 39.2934 11.1601 38.92 11.1601C38.0934 11.1601 37.3334 11.4135 36.64 11.9201C35.9467 12.4001 35.36 13.0268 34.88 13.8001C34.4 14.5735 34.0267 15.4001 33.76 16.2801C33.4934 17.1335 33.36 17.9335 33.36 18.6801V27.1601C33.36 28.4668 33.7334 29.3468 34.48 29.8001C35.2534 30.2268 36.2934 30.4401 37.6 30.4401V31.2801C36.9867 31.2535 36.12 31.2268 35 31.2001C33.88 31.1468 32.6934 31.1201 31.44 31.1201C30.5334 31.1201 29.6267 31.1468 28.72 31.2001C27.84 31.2268 27.1734 31.2535 26.72 31.2801V30.4401C27.8134 30.4401 28.5867 30.2401 29.04 29.8401C29.52 29.4401 29.76 28.6801 29.76 27.5601V15.0401C29.76 13.8401 29.5467 12.9601 29.12 12.4001C28.6934 11.8135 27.8934 11.5201 26.72 11.5201V10.6801C27.5734 10.7601 28.4 10.8001 29.2 10.8001C29.9734 10.8001 30.7067 10.7601 31.4 10.6801C32.12 10.5735 32.7734 10.4268 33.36 10.2401V15.2401C33.6534 14.4668 34.0667 13.6935 34.6 12.9201C35.16 12.1201 35.8267 11.4535 36.6 10.9201C37.3734 10.3868 38.2267 10.1201 39.16 10.1201Z" fill="white"/>
<path d="M51.24 3.47998V10.16H57.16V10.96H51.24V26.44C51.24 27.6933 51.4667 28.5733 51.92 29.08C52.3733 29.5866 53 29.84 53.8 29.84C54.6 29.84 55.2933 29.52 55.88 28.88C56.4667 28.2133 56.9733 27.1066 57.4 25.56L58.2 25.76C57.9333 27.3066 57.4 28.6133 56.6 29.68C55.8267 30.7466 54.6267 31.28 53 31.28C52.0933 31.28 51.3467 31.16 50.76 30.92C50.1733 30.7066 49.6533 30.3866 49.2 29.96C48.6133 29.3466 48.2 28.6133 47.96 27.76C47.7467 26.9067 47.64 25.7733 47.64 24.36V10.96H43.8V10.16H47.64V4.03998C48.3067 4.01331 48.9467 3.95998 49.56 3.87998C50.1733 3.79998 50.7333 3.66665 51.24 3.47998Z" fill="white"/>
<path d="M63.76 0.679932C64.4533 0.679932 65.0533 0.933265 65.56 1.43993C66.0667 1.9466 66.32 2.5466 66.32 3.23993C66.32 3.93327 66.0667 4.53327 65.56 5.03993C65.0533 5.5466 64.4533 5.79993 63.76 5.79993C63.0667 5.79993 62.4667 5.5466 61.96 5.03993C61.4533 4.53327 61.2 3.93327 61.2 3.23993C61.2 2.5466 61.4533 1.9466 61.96 1.43993C62.4667 0.933265 63.0667 0.679932 63.76 0.679932ZM65.84 10.2399V27.5599C65.84 28.6799 66.0667 29.4399 66.52 29.8399C67 30.2399 67.7867 30.4399 68.88 30.4399V31.2799C68.4267 31.2533 67.7333 31.2266 66.8 31.1999C65.8933 31.1466 64.9733 31.1199 64.04 31.1199C63.1333 31.1199 62.2133 31.1466 61.28 31.1999C60.3467 31.2266 59.6533 31.2533 59.2 31.2799V30.4399C60.2933 30.4399 61.0667 30.2399 61.52 29.8399C62 29.4399 62.24 28.6799 62.24 27.5599V15.0399C62.24 13.8399 62.0267 12.9599 61.6 12.3999C61.1733 11.8133 60.3733 11.5199 59.2 11.5199V10.6799C60.0533 10.7599 60.88 10.7999 61.68 10.7999C62.4533 10.7999 63.1867 10.7599 63.88 10.6799C64.6 10.5733 65.2533 10.4266 65.84 10.2399Z" fill="white"/>
<path d="M79.88 0C80.6267 0 81.28 0.106667 81.84 0.320001C82.4267 0.506668 82.9333 0.760001 83.36 1.08C83.76 1.4 84.0667 1.77333 84.28 2.2C84.4933 2.62667 84.6 3.08 84.6 3.56C84.6 4.17334 84.4 4.68 84 5.08C83.6 5.48 83.0933 5.68 82.48 5.68C81.8933 5.68 81.3733 5.49333 80.92 5.12C80.4933 4.72 80.28 4.18667 80.28 3.52C80.28 2.96 80.4267 2.50667 80.72 2.16C81.04 1.81333 81.4533 1.58667 81.96 1.48C81.88 1.24 81.6667 1.04 81.32 0.880001C81 0.693335 80.56 0.600002 80 0.600002C79.3867 0.600002 78.8533 0.733335 78.4 1C77.9733 1.26667 77.64 1.62667 77.4 2.08C77.08 2.64 76.88 3.48 76.8 4.6C76.72 5.69333 76.68 7.38667 76.68 9.68V10.72H80.96V11.52H76.68V27.16C76.68 28.4667 77.0533 29.3467 77.8 29.8C78.5733 30.2267 79.6133 30.44 80.92 30.44V31.28C80.3067 31.2533 79.44 31.2267 78.32 31.2C77.2 31.1467 76.0133 31.12 74.76 31.12C73.8533 31.12 72.9467 31.1467 72.04 31.2C71.16 31.2267 70.4933 31.2533 70.04 31.28V30.44C71.1333 30.44 71.9067 30.24 72.36 29.84C72.84 29.44 73.08 28.68 73.08 27.56V11.52H69.88V10.72H73.08C73.08 9.14667 73.1467 7.82667 73.28 6.76C73.4133 5.69333 73.6267 4.78667 73.92 4.04C74.2133 3.26667 74.6133 2.58667 75.12 2C75.6533 1.38667 76.3333 0.906668 77.16 0.560002C77.9867 0.186667 78.8933 0 79.88 0Z" fill="white"/>
<path d="M90.88 31.2801C89.7866 31.2801 88.84 31.0801 88.04 30.6801C87.24 30.2534 86.6266 29.6668 86.2 28.9201C85.8 28.1734 85.6 27.3068 85.6 26.3201C85.6 25.1468 85.8666 24.1868 86.4 23.4401C86.96 22.6934 87.6666 22.0934 88.52 21.6401C89.3733 21.1868 90.2666 20.8134 91.2 20.5201C92.16 20.2001 93.0666 19.9068 93.92 19.6401C94.7733 19.3468 95.4666 19.0134 96 18.6401C96.56 18.2668 96.84 17.7734 96.84 17.1601V14.6801C96.84 13.5601 96.6666 12.7068 96.32 12.1201C96 11.5334 95.56 11.1468 95 10.9601C94.44 10.7468 93.8133 10.6401 93.12 10.6401C92.4533 10.6401 91.7333 10.7334 90.96 10.9201C90.2133 11.1068 89.6133 11.4934 89.16 12.0801C89.6666 12.1868 90.1066 12.4534 90.48 12.8801C90.8533 13.3068 91.04 13.8534 91.04 14.5201C91.04 15.1868 90.8266 15.7201 90.4 16.1201C89.9733 16.4934 89.4266 16.6801 88.76 16.6801C87.9866 16.6801 87.4133 16.4401 87.04 15.9601C86.6933 15.4534 86.52 14.8934 86.52 14.2801C86.52 13.5868 86.6933 13.0268 87.04 12.6001C87.3866 12.1734 87.8266 11.7734 88.36 11.4001C88.9733 10.9734 89.76 10.6134 90.72 10.3201C91.7066 10.0001 92.8133 9.84009 94.04 9.84009C95.1333 9.84009 96.0666 9.97342 96.84 10.2401C97.6133 10.4801 98.2533 10.8401 98.76 11.3201C99.4533 11.9601 99.9066 12.7468 100.12 13.6801C100.333 14.5868 100.44 15.6801 100.44 16.9601V28.0801C100.44 28.7468 100.533 29.2268 100.72 29.5201C100.933 29.8134 101.253 29.9601 101.68 29.9601C101.973 29.9601 102.253 29.8934 102.52 29.7601C102.787 29.6268 103.107 29.4134 103.48 29.1201L103.92 29.8001C103.36 30.2268 102.827 30.5868 102.32 30.8801C101.813 31.1468 101.133 31.2801 100.28 31.2801C99.5066 31.2801 98.8666 31.1468 98.36 30.8801C97.8533 30.6134 97.4666 30.2268 97.2 29.7201C96.96 29.1868 96.84 28.5201 96.84 27.7201C96.12 28.9201 95.2533 29.8134 94.24 30.4001C93.2533 30.9868 92.1333 31.2801 90.88 31.2801ZM92.32 29.6801C93.2 29.6801 94.0133 29.4268 94.76 28.9201C95.5333 28.4134 96.2266 27.6534 96.84 26.6401V18.8001C96.52 19.2534 96.0533 19.6401 95.44 19.9601C94.8266 20.2534 94.16 20.5601 93.44 20.8801C92.72 21.1734 92.0266 21.5334 91.36 21.9601C90.72 22.3601 90.1866 22.8934 89.76 23.5601C89.3333 24.2268 89.12 25.0934 89.12 26.1601C89.12 27.2268 89.4 28.0801 89.96 28.7201C90.5466 29.3601 91.3333 29.6801 92.32 29.6801Z" fill="white"/>
<path d="M114.24 9.56006C115.093 9.56006 115.92 9.66673 116.72 9.88006C117.52 10.0934 118.24 10.4134 118.88 10.8401C119.493 11.2401 119.96 11.7067 120.28 12.2401C120.6 12.7467 120.76 13.3067 120.76 13.9201C120.76 14.6401 120.56 15.2001 120.16 15.6001C119.76 15.9734 119.253 16.1601 118.64 16.1601C118.053 16.1601 117.533 15.9867 117.08 15.6401C116.653 15.2934 116.44 14.8001 116.44 14.1601C116.44 13.5467 116.6 13.0534 116.92 12.6801C117.267 12.3067 117.667 12.0667 118.12 11.9601C117.853 11.4801 117.373 11.0801 116.68 10.7601C116.013 10.4401 115.293 10.2801 114.52 10.2801C113.853 10.2801 113.187 10.4401 112.52 10.7601C111.853 11.0801 111.24 11.6134 110.68 12.3601C110.12 13.0801 109.667 14.0801 109.32 15.3601C108.973 16.6134 108.8 18.1867 108.8 20.0801C108.8 22.4267 109.067 24.2934 109.6 25.6801C110.133 27.0667 110.827 28.0667 111.68 28.6801C112.56 29.2667 113.52 29.5601 114.56 29.5601C115.253 29.5601 115.96 29.4267 116.68 29.1601C117.4 28.8934 118.08 28.4667 118.72 27.8801C119.36 27.2667 119.907 26.4534 120.36 25.4401L121.12 25.7201C120.853 26.5734 120.413 27.4401 119.8 28.3201C119.187 29.1734 118.387 29.8801 117.4 30.4401C116.413 31.0001 115.2 31.2801 113.76 31.2801C112.107 31.2801 110.613 30.8534 109.28 30.0001C107.947 29.1467 106.88 27.9334 106.08 26.3601C105.307 24.7601 104.92 22.8667 104.92 20.6801C104.92 18.4934 105.307 16.5734 106.08 14.9201C106.88 13.2401 107.987 11.9334 109.4 11.0001C110.813 10.0401 112.427 9.56006 114.24 9.56006Z" fill="white"/>
<path d="M129.56 3.47998V10.16H135.48V10.96H129.56V26.44C129.56 27.6933 129.787 28.5733 130.24 29.08C130.693 29.5866 131.32 29.84 132.12 29.84C132.92 29.84 133.613 29.52 134.2 28.88C134.787 28.2133 135.293 27.1066 135.72 25.56L136.52 25.76C136.253 27.3066 135.72 28.6133 134.92 29.68C134.147 30.7466 132.947 31.28 131.32 31.28C130.413 31.28 129.667 31.16 129.08 30.92C128.493 30.7066 127.973 30.3866 127.52 29.96C126.933 29.3466 126.52 28.6133 126.28 27.76C126.067 26.9067 125.96 25.7733 125.96 24.36V10.96H122.12V10.16H125.96V4.03998C126.627 4.01331 127.267 3.95998 127.88 3.87998C128.493 3.79998 129.053 3.66665 129.56 3.47998Z" fill="white"/>
<path d="M142.8 31.2801C141.707 31.2801 140.76 31.0801 139.96 30.6801C139.16 30.2534 138.547 29.6668 138.12 28.9201C137.72 28.1734 137.52 27.3068 137.52 26.3201C137.52 25.1468 137.787 24.1868 138.32 23.4401C138.88 22.6934 139.587 22.0934 140.44 21.6401C141.293 21.1868 142.187 20.8134 143.12 20.5201C144.08 20.2001 144.987 19.9068 145.84 19.6401C146.693 19.3468 147.387 19.0134 147.92 18.6401C148.48 18.2668 148.76 17.7734 148.76 17.1601V14.6801C148.76 13.5601 148.587 12.7068 148.24 12.1201C147.92 11.5334 147.48 11.1468 146.92 10.9601C146.36 10.7468 145.733 10.6401 145.04 10.6401C144.373 10.6401 143.653 10.7334 142.88 10.9201C142.133 11.1068 141.533 11.4934 141.08 12.0801C141.587 12.1868 142.027 12.4534 142.4 12.8801C142.773 13.3068 142.96 13.8534 142.96 14.5201C142.96 15.1868 142.747 15.7201 142.32 16.1201C141.893 16.4934 141.347 16.6801 140.68 16.6801C139.907 16.6801 139.333 16.4401 138.96 15.9601C138.613 15.4534 138.44 14.8934 138.44 14.2801C138.44 13.5868 138.613 13.0268 138.96 12.6001C139.307 12.1734 139.747 11.7734 140.28 11.4001C140.893 10.9734 141.68 10.6134 142.64 10.3201C143.627 10.0001 144.733 9.84009 145.96 9.84009C147.053 9.84009 147.987 9.97342 148.76 10.2401C149.533 10.4801 150.173 10.8401 150.68 11.3201C151.373 11.9601 151.827 12.7468 152.04 13.6801C152.253 14.5868 152.36 15.6801 152.36 16.9601V28.0801C152.36 28.7468 152.453 29.2268 152.64 29.5201C152.853 29.8134 153.173 29.9601 153.6 29.9601C153.893 29.9601 154.173 29.8934 154.44 29.7601C154.707 29.6268 155.027 29.4134 155.4 29.1201L155.84 29.8001C155.28 30.2268 154.747 30.5868 154.24 30.8801C153.733 31.1468 153.053 31.2801 152.2 31.2801C151.427 31.2801 150.787 31.1468 150.28 30.8801C149.773 30.6134 149.387 30.2268 149.12 29.7201C148.88 29.1868 148.76 28.5201 148.76 27.7201C148.04 28.9201 147.173 29.8134 146.16 30.4001C145.173 30.9868 144.053 31.2801 142.8 31.2801ZM144.24 29.6801C145.12 29.6801 145.933 29.4268 146.68 28.9201C147.453 28.4134 148.147 27.6534 148.76 26.6401V18.8001C148.44 19.2534 147.973 19.6401 147.36 19.9601C146.747 20.2534 146.08 20.5601 145.36 20.8801C144.64 21.1734 143.947 21.5334 143.28 21.9601C142.64 22.3601 142.107 22.8934 141.68 23.5601C141.253 24.2268 141.04 25.0934 141.04 26.1601C141.04 27.2268 141.32 28.0801 141.88 28.7201C142.467 29.3601 143.253 29.6801 144.24 29.6801Z" fill="white"/>
</svg>
