<svg width="876" height="468" viewBox="0 0 876 468" fill="none" xmlns="http://www.w3.org/2000/svg">
<path d="M40.863 8.58399C48.9697 8.58399 56.0523 10.4187 62.111 14.088C68.255 17.7573 72.991 23.048 76.319 29.96C79.7323 36.7867 81.439 45.1067 81.439 54.92C81.439 64.4773 79.6897 72.84 76.191 80.008C72.7777 87.176 67.999 92.7653 61.855 96.776C55.711 100.787 48.671 102.792 40.735 102.792C32.6283 102.792 25.503 100.957 19.359 97.288C13.3003 93.6187 8.56433 88.328 5.151 81.416C1.823 74.504 0.159 66.184 0.159 56.456C0.159 46.8987 1.90833 38.536 5.407 31.368C8.90567 24.2 13.6843 18.6107 19.743 14.6C25.887 10.5893 32.927 8.58399 40.863 8.58399ZM40.351 10.888C34.8043 10.888 29.983 12.808 25.887 16.648C21.791 20.488 18.591 25.7787 16.287 32.52C14.0683 39.2613 12.959 47.0693 12.959 55.944C12.959 64.9893 14.1963 72.8827 16.671 79.624C19.231 86.28 22.6443 91.4427 26.911 95.112C31.263 98.696 36.0417 100.488 41.247 100.488C46.7937 100.488 51.615 98.568 55.711 94.728C59.807 90.888 62.9643 85.5973 65.183 78.856C67.487 72.0293 68.639 64.2213 68.639 55.432C68.639 46.3013 67.359 38.408 64.799 31.752C62.3243 25.096 58.9537 19.976 54.687 16.392C50.4203 12.7227 45.6417 10.888 40.351 10.888ZM129.978 33.288C136.975 33.288 142.778 36.1893 147.386 41.992C151.994 47.7093 154.298 56.4133 154.298 68.104C154.298 75.784 152.975 82.2267 150.33 87.432C147.77 92.552 144.314 96.392 139.962 98.952C135.61 101.512 130.874 102.792 125.754 102.792C121.487 102.792 117.349 101.597 113.338 99.208C109.413 96.7333 106.469 93.1067 104.506 88.328L107.066 89.736C109.199 93.1493 111.845 95.7093 115.002 97.416C118.159 99.0373 121.402 99.848 124.73 99.848C130.447 99.848 134.714 97.288 137.53 92.168C140.431 86.9627 141.882 78.9413 141.882 68.104C141.882 61.192 141.327 55.432 140.218 50.824C139.109 46.216 137.402 42.8027 135.098 40.584C132.794 38.28 129.85 37.128 126.266 37.128C122.341 37.128 118.671 38.92 115.258 42.504C111.93 46.0027 109.882 51.1653 109.114 57.992L107.578 56.2C108.517 48.9467 111.034 43.3147 115.13 39.304C119.311 35.2933 124.261 33.288 129.978 33.288ZM110.01 0.775993V94.344C108.901 95.2827 107.749 96.264 106.554 97.288C105.445 98.2267 104.335 99.1653 103.226 100.104C102.117 101.043 100.965 102.024 99.77 103.048L97.594 102.152C97.9353 100.957 98.1487 99.7627 98.234 98.568C98.4047 97.288 98.49 96.008 98.49 94.728V16.136C98.49 12.296 97.8073 9.48 96.442 7.688C95.0767 5.81066 92.5167 4.87199 88.762 4.87199V2.184C91.4927 2.43999 94.138 2.56799 96.698 2.56799C99.1727 2.56799 101.519 2.43999 103.738 2.184C106.042 1.84266 108.133 1.37333 110.01 0.775993ZM157.047 125.064V123.144C162.338 122.888 166.306 120.584 168.951 116.232C171.596 111.965 172.919 106.077 172.919 98.568V49.032C172.919 45.192 172.236 42.376 170.871 40.584C169.506 38.7067 166.946 37.768 163.191 37.768V35.08C165.922 35.336 168.567 35.464 171.127 35.464C173.602 35.464 175.948 35.336 178.167 35.08C180.471 34.7387 182.562 34.2693 184.439 33.672V86.28C184.439 90.5467 184.14 94.6 183.543 98.44C182.946 102.28 181.964 105.779 180.599 108.936C179.234 112.093 177.442 114.867 175.223 117.256C173.09 119.56 170.444 121.437 167.287 122.888C164.215 124.339 160.802 125.064 157.047 125.064ZM177.527 3.07999C179.746 3.07999 181.666 3.89066 183.287 5.51199C184.908 7.13333 185.719 9.05333 185.719 11.272C185.719 13.4907 184.908 15.4107 183.287 17.032C181.666 18.6533 179.746 19.464 177.527 19.464C175.308 19.464 173.388 18.6533 171.767 17.032C170.146 15.4107 169.335 13.4907 169.335 11.272C169.335 9.05333 170.146 7.13333 171.767 5.51199C173.388 3.89066 175.308 3.07999 177.527 3.07999ZM229.316 33.288C236.825 33.288 242.671 35.592 246.852 40.2C251.119 44.7227 253.252 51.8053 253.252 61.448H208.068L207.94 59.016H240.964C241.135 54.8347 240.793 50.9947 239.94 47.496C239.087 43.912 237.721 41.0533 235.844 38.92C234.052 36.7867 231.705 35.72 228.804 35.72C224.879 35.72 221.38 37.6827 218.308 41.608C215.321 45.5333 213.529 51.7627 212.932 60.296L213.316 60.808C213.145 62.088 213.017 63.496 212.932 65.032C212.847 66.568 212.804 68.104 212.804 69.64C212.804 75.4427 213.743 80.4347 215.62 84.616C217.497 88.7973 219.929 91.9973 222.916 94.216C225.988 96.3493 229.145 97.416 232.388 97.416C234.948 97.416 237.38 97.032 239.684 96.264C241.988 95.4107 244.121 94.0453 246.084 92.168C248.047 90.2907 249.753 87.7733 251.204 84.616L253.764 85.64C252.825 88.456 251.289 91.1867 249.156 93.832C247.023 96.4773 244.335 98.6533 241.092 100.36C237.849 101.981 234.095 102.792 229.828 102.792C223.684 102.792 218.393 101.384 213.956 98.568C209.604 95.752 206.233 91.8693 203.844 86.92C201.54 81.8853 200.388 76.1253 200.388 69.64C200.388 62.1307 201.583 55.688 203.972 50.312C206.361 44.8507 209.732 40.6693 214.084 37.768C218.436 34.7813 223.513 33.288 229.316 33.288ZM294.962 33.288C297.693 33.288 300.338 33.6293 302.898 34.312C305.458 34.9947 307.762 36.0187 309.81 37.384C311.773 38.664 313.266 40.1573 314.29 41.864C315.314 43.4853 315.826 45.2773 315.826 47.24C315.826 49.544 315.186 51.336 313.906 52.616C312.626 53.8107 311.005 54.408 309.042 54.408C307.165 54.408 305.501 53.8533 304.05 52.744C302.685 51.6347 302.002 50.056 302.002 48.008C302.002 46.0453 302.514 44.4667 303.538 43.272C304.647 42.0773 305.927 41.3093 307.378 40.968C306.525 39.432 304.989 38.152 302.77 37.128C300.637 36.104 298.333 35.592 295.858 35.592C293.725 35.592 291.591 36.104 289.458 37.128C287.325 38.152 285.362 39.8587 283.57 42.248C281.778 44.552 280.327 47.752 279.218 51.848C278.109 55.8587 277.554 60.8933 277.554 66.952C277.554 74.4613 278.407 80.4347 280.114 84.872C281.821 89.3093 284.039 92.5093 286.77 94.472C289.586 96.3493 292.658 97.288 295.986 97.288C298.205 97.288 300.466 96.8613 302.77 96.008C305.074 95.1547 307.25 93.7893 309.298 91.912C311.346 89.9493 313.095 87.3467 314.546 84.104L316.978 85C316.125 87.7307 314.717 90.504 312.754 93.32C310.791 96.0507 308.231 98.312 305.074 100.104C301.917 101.896 298.034 102.792 293.426 102.792C288.135 102.792 283.357 101.427 279.09 98.696C274.823 95.9653 271.41 92.0827 268.85 87.048C266.375 81.928 265.138 75.8693 265.138 68.872C265.138 61.8747 266.375 55.7307 268.85 50.44C271.41 45.064 274.951 40.8827 279.474 37.896C283.997 34.824 289.159 33.288 294.962 33.288ZM345.82 13.832V35.208H364.764V37.768H345.82V87.304C345.82 91.3147 346.545 94.1307 347.996 95.752C349.447 97.3733 351.452 98.184 354.012 98.184C356.572 98.184 358.791 97.16 360.668 95.112C362.545 92.9787 364.167 89.4373 365.532 84.488L368.092 85.128C367.239 90.0773 365.532 94.2587 362.972 97.672C360.497 101.085 356.657 102.792 351.452 102.792C348.551 102.792 346.161 102.408 344.284 101.64C342.407 100.957 340.743 99.9333 339.292 98.568C337.415 96.6053 336.092 94.2587 335.324 91.528C334.641 88.7973 334.3 85.1707 334.3 80.648V37.768H322.012V35.208H334.3V15.624C336.433 15.5387 338.481 15.368 340.444 15.112C342.407 14.856 344.199 14.4293 345.82 13.832ZM393.374 33.288C396.787 33.288 399.689 33.8427 402.078 34.952C404.467 36.0613 406.217 37.0853 407.326 38.024C410.142 40.328 411.849 38.792 412.446 33.416H415.39C415.219 35.8053 415.091 38.664 415.006 41.992C414.921 45.2347 414.878 49.6293 414.878 55.176H411.934C411.422 52.0187 410.526 48.9467 409.246 45.96C408.051 42.9733 406.259 40.5413 403.87 38.664C401.481 36.7013 398.366 35.72 394.526 35.72C391.539 35.72 389.022 36.5733 386.974 38.28C385.011 39.9013 384.03 42.3333 384.03 45.576C384.03 48.136 384.798 50.3547 386.334 52.232C387.87 54.024 389.875 55.7307 392.35 57.352C394.825 58.888 397.513 60.5947 400.414 62.472C403.657 64.52 406.601 66.6107 409.246 68.744C411.891 70.8773 413.982 73.224 415.518 75.784C417.139 78.344 417.95 81.3733 417.95 84.872C417.95 88.7973 416.926 92.0827 414.878 94.728C412.83 97.3733 410.142 99.3787 406.814 100.744C403.571 102.109 399.987 102.792 396.062 102.792C394.185 102.792 392.393 102.621 390.686 102.28C389.065 102.024 387.486 101.597 385.95 101C385.097 100.573 384.201 100.061 383.262 99.464C382.409 98.8667 381.555 98.2267 380.702 97.544C379.849 96.8613 379.081 96.904 378.398 97.672C377.715 98.3547 377.203 99.7627 376.862 101.896H373.918C374.089 99.1653 374.217 95.8373 374.302 91.912C374.387 87.9867 374.43 82.7813 374.43 76.296H377.374C377.971 81.0747 378.825 85.256 379.934 88.84C381.043 92.424 382.793 95.24 385.182 97.288C387.571 99.2507 390.899 100.232 395.166 100.232C396.873 100.232 398.579 99.848 400.286 99.08C402.078 98.312 403.571 97.032 404.766 95.24C405.961 93.448 406.558 91.0587 406.558 88.072C406.558 84.3173 405.193 81.2453 402.462 78.856C399.731 76.4667 396.275 73.9493 392.094 71.304C389.022 69.3413 386.121 67.3787 383.39 65.416C380.745 63.4533 378.569 61.2347 376.862 58.76C375.241 56.2853 374.43 53.2987 374.43 49.8C374.43 45.96 375.283 42.8453 376.99 40.456C378.782 37.9813 381.129 36.1893 384.03 35.08C386.931 33.8853 390.046 33.288 393.374 33.288ZM472.003 86.408C473.88 86.408 475.416 86.792 476.611 87.56C477.806 88.328 478.787 89.3093 479.555 90.504C480.494 91.8693 481.091 93.3627 481.347 94.984C481.603 96.6053 481.731 97.928 481.731 98.952C481.731 103.133 480.664 106.931 478.531 110.344C476.398 113.757 473.07 116.531 468.547 118.664L467.395 116.36C470.04 115.251 472.302 113.501 474.179 111.112C476.142 108.723 477.123 106.291 477.123 103.816C477.123 102.792 476.995 101.896 476.739 101.128C475.374 102.237 473.795 102.792 472.003 102.792C469.784 102.792 467.864 102.067 466.243 100.616C464.622 99.1653 463.811 97.16 463.811 94.6C463.811 92.2107 464.622 90.248 466.243 88.712C467.864 87.176 469.784 86.408 472.003 86.408ZM598.286 10.376V12.936C596.665 13.2773 594.915 14.2587 593.038 15.88C591.246 17.5013 589.625 20.232 588.174 24.072L558.094 101.64C557.923 101.64 557.753 101.64 557.582 101.64C557.411 101.64 557.241 101.64 557.07 101.64C556.899 101.64 556.729 101.64 556.558 101.64C556.387 101.64 556.217 101.64 556.046 101.64L524.814 21.128C523.534 17.8853 522.083 15.752 520.462 14.728C518.841 13.6187 517.347 13.0213 515.982 12.936V10.376C517.689 10.4613 519.779 10.5467 522.254 10.632C524.814 10.7173 527.289 10.76 529.678 10.76C533.006 10.76 536.121 10.7173 539.022 10.632C541.923 10.5467 544.27 10.4613 546.062 10.376V12.936C543.161 13.0213 540.942 13.3627 539.406 13.96C537.955 14.5573 537.145 15.624 536.974 17.16C536.889 18.6107 537.401 20.7867 538.51 23.688L562.318 86.792L560.27 88.968L582.542 31.112C584.334 26.504 585.187 22.92 585.102 20.36C585.017 17.7147 584.035 15.8373 582.158 14.728C580.281 13.6187 577.55 13.0213 573.966 12.936V10.376C576.441 10.4613 578.958 10.5467 581.518 10.632C584.078 10.7173 586.467 10.76 588.686 10.76C590.905 10.76 592.739 10.7173 594.19 10.632C595.641 10.5467 597.006 10.4613 598.286 10.376ZM624.822 33.288C630.283 33.288 635.19 34.4827 639.542 36.872C643.894 39.2613 647.35 43.016 649.91 48.136C652.555 53.256 653.878 59.912 653.878 68.104C653.878 76.296 652.555 82.952 649.91 88.072C647.35 93.1067 643.894 96.8187 639.542 99.208C635.19 101.597 630.283 102.792 624.822 102.792C619.446 102.792 614.539 101.597 610.102 99.208C605.75 96.8187 602.251 93.1067 599.606 88.072C597.046 82.952 595.766 76.296 595.766 68.104C595.766 59.912 597.046 53.256 599.606 48.136C602.251 43.016 605.75 39.2613 610.102 36.872C614.539 34.4827 619.446 33.288 624.822 33.288ZM624.822 35.848C619.958 35.848 615.947 38.3653 612.79 43.4C609.718 48.4347 608.182 56.6693 608.182 68.104C608.182 79.5387 609.718 87.7733 612.79 92.808C615.947 97.7573 619.958 100.232 624.822 100.232C629.686 100.232 633.654 97.7573 636.726 92.808C639.883 87.7733 641.462 79.5387 641.462 68.104C641.462 56.6693 639.883 48.4347 636.726 43.4C633.654 38.3653 629.686 35.848 624.822 35.848ZM678.179 3.07999C680.398 3.07999 682.318 3.89066 683.939 5.51199C685.56 7.13333 686.371 9.05333 686.371 11.272C686.371 13.4907 685.56 15.4107 683.939 17.032C682.318 18.6533 680.398 19.464 678.179 19.464C675.96 19.464 674.04 18.6533 672.419 17.032C670.798 15.4107 669.987 13.4907 669.987 11.272C669.987 9.05333 670.798 7.13333 672.419 5.51199C674.04 3.89066 675.96 3.07999 678.179 3.07999ZM684.835 33.672V89.096C684.835 92.68 685.56 95.112 687.011 96.392C688.547 97.672 691.064 98.312 694.563 98.312V101C693.112 100.915 690.894 100.829 687.907 100.744C685.006 100.573 682.062 100.488 679.075 100.488C676.174 100.488 673.23 100.573 670.243 100.744C667.256 100.829 665.038 100.915 663.587 101V98.312C667.086 98.312 669.56 97.672 671.011 96.392C672.547 95.112 673.315 92.68 673.315 89.096V49.032C673.315 45.192 672.632 42.376 671.267 40.584C669.902 38.7067 667.342 37.768 663.587 37.768V35.08C666.318 35.336 668.963 35.464 671.523 35.464C673.998 35.464 676.344 35.336 678.563 35.08C680.867 34.7387 682.958 34.2693 684.835 33.672ZM733.087 33.288C735.818 33.288 738.463 33.6293 741.023 34.312C743.583 34.9947 745.887 36.0187 747.935 37.384C749.898 38.664 751.391 40.1573 752.415 41.864C753.439 43.4853 753.951 45.2773 753.951 47.24C753.951 49.544 753.311 51.336 752.031 52.616C750.751 53.8107 749.13 54.408 747.167 54.408C745.29 54.408 743.626 53.8533 742.175 52.744C740.81 51.6347 740.127 50.056 740.127 48.008C740.127 46.0453 740.639 44.4667 741.663 43.272C742.772 42.0773 744.052 41.3093 745.503 40.968C744.65 39.432 743.114 38.152 740.895 37.128C738.762 36.104 736.458 35.592 733.983 35.592C731.85 35.592 729.716 36.104 727.583 37.128C725.45 38.152 723.487 39.8587 721.695 42.248C719.903 44.552 718.452 47.752 717.343 51.848C716.234 55.8587 715.679 60.8933 715.679 66.952C715.679 74.4613 716.532 80.4347 718.239 84.872C719.946 89.3093 722.164 92.5093 724.895 94.472C727.711 96.3493 730.783 97.288 734.111 97.288C736.33 97.288 738.591 96.8613 740.895 96.008C743.199 95.1547 745.375 93.7893 747.423 91.912C749.471 89.9493 751.22 87.3467 752.671 84.104L755.103 85C754.25 87.7307 752.842 90.504 750.879 93.32C748.916 96.0507 746.356 98.312 743.199 100.104C740.042 101.896 736.159 102.792 731.551 102.792C726.26 102.792 721.482 101.427 717.215 98.696C712.948 95.9653 709.535 92.0827 706.975 87.048C704.5 81.928 703.263 75.8693 703.263 68.872C703.263 61.8747 704.5 55.7307 706.975 50.44C709.535 45.064 713.076 40.8827 717.599 37.896C722.122 34.824 727.284 33.288 733.087 33.288ZM794.441 33.288C801.95 33.288 807.796 35.592 811.977 40.2C816.244 44.7227 818.377 51.8053 818.377 61.448H773.193L773.065 59.016H806.089C806.26 54.8347 805.918 50.9947 805.065 47.496C804.212 43.912 802.846 41.0533 800.969 38.92C799.177 36.7867 796.83 35.72 793.929 35.72C790.004 35.72 786.505 37.6827 783.433 41.608C780.446 45.5333 778.654 51.7627 778.057 60.296L778.441 60.808C778.27 62.088 778.142 63.496 778.057 65.032C777.972 66.568 777.929 68.104 777.929 69.64C777.929 75.4427 778.868 80.4347 780.745 84.616C782.622 88.7973 785.054 91.9973 788.041 94.216C791.113 96.3493 794.27 97.416 797.513 97.416C800.073 97.416 802.505 97.032 804.809 96.264C807.113 95.4107 809.246 94.0453 811.209 92.168C813.172 90.2907 814.878 87.7733 816.329 84.616L818.889 85.64C817.95 88.456 816.414 91.1867 814.281 93.832C812.148 96.4773 809.46 98.6533 806.217 100.36C802.974 101.981 799.22 102.792 794.953 102.792C788.809 102.792 783.518 101.384 779.081 98.568C774.729 95.752 771.358 91.8693 768.969 86.92C766.665 81.8853 765.513 76.1253 765.513 69.64C765.513 62.1307 766.708 55.688 769.097 50.312C771.486 44.8507 774.857 40.6693 779.209 37.768C783.561 34.7813 788.638 33.288 794.441 33.288ZM850.999 33.288C854.412 33.288 857.314 33.8427 859.703 34.952C862.092 36.0613 863.842 37.0853 864.951 38.024C867.767 40.328 869.474 38.792 870.071 33.416H873.015C872.844 35.8053 872.716 38.664 872.631 41.992C872.546 45.2347 872.503 49.6293 872.503 55.176H869.559C869.047 52.0187 868.151 48.9467 866.871 45.96C865.676 42.9733 863.884 40.5413 861.495 38.664C859.106 36.7013 855.991 35.72 852.151 35.72C849.164 35.72 846.647 36.5733 844.599 38.28C842.636 39.9013 841.655 42.3333 841.655 45.576C841.655 48.136 842.423 50.3547 843.959 52.232C845.495 54.024 847.5 55.7307 849.975 57.352C852.45 58.888 855.138 60.5947 858.039 62.472C861.282 64.52 864.226 66.6107 866.871 68.744C869.516 70.8773 871.607 73.224 873.143 75.784C874.764 78.344 875.575 81.3733 875.575 84.872C875.575 88.7973 874.551 92.0827 872.503 94.728C870.455 97.3733 867.767 99.3787 864.439 100.744C861.196 102.109 857.612 102.792 853.687 102.792C851.81 102.792 850.018 102.621 848.311 102.28C846.69 102.024 845.111 101.597 843.575 101C842.722 100.573 841.826 100.061 840.887 99.464C840.034 98.8667 839.18 98.2267 838.327 97.544C837.474 96.8613 836.706 96.904 836.023 97.672C835.34 98.3547 834.828 99.7627 834.487 101.896H831.543C831.714 99.1653 831.842 95.8373 831.927 91.912C832.012 87.9867 832.055 82.7813 832.055 76.296H834.999C835.596 81.0747 836.45 85.256 837.559 88.84C838.668 92.424 840.418 95.24 842.807 97.288C845.196 99.2507 848.524 100.232 852.791 100.232C854.498 100.232 856.204 99.848 857.911 99.08C859.703 98.312 861.196 97.032 862.391 95.24C863.586 93.448 864.183 91.0587 864.183 88.072C864.183 84.3173 862.818 81.2453 860.087 78.856C857.356 76.4667 853.9 73.9493 849.719 71.304C846.647 69.3413 843.746 67.3787 841.015 65.416C838.37 63.4533 836.194 61.2347 834.487 58.76C832.866 56.2853 832.055 53.2987 832.055 49.8C832.055 45.96 832.908 42.8453 834.615 40.456C836.407 37.9813 838.754 36.1893 841.655 35.08C844.556 33.8853 847.671 33.288 850.999 33.288ZM152.513 272.896C149.014 272.896 145.985 272.256 143.425 270.976C140.865 269.611 138.902 267.733 137.537 265.344C136.257 262.955 135.617 260.181 135.617 257.024C135.617 253.269 136.47 250.197 138.177 247.808C139.969 245.419 142.23 243.499 144.961 242.048C147.692 240.597 150.55 239.403 153.537 238.464C156.609 237.44 159.51 236.501 162.241 235.648C164.972 234.709 167.19 233.643 168.897 232.448C170.689 231.253 171.585 229.675 171.585 227.712V219.776C171.585 216.192 171.03 213.461 169.921 211.584C168.897 209.707 167.489 208.469 165.697 207.872C163.905 207.189 161.9 206.848 159.681 206.848C157.548 206.848 155.244 207.147 152.769 207.744C150.38 208.341 148.46 209.579 147.009 211.456C148.63 211.797 150.038 212.651 151.233 214.016C152.428 215.381 153.025 217.131 153.025 219.264C153.025 221.397 152.342 223.104 150.977 224.384C149.612 225.579 147.862 226.176 145.729 226.176C143.254 226.176 141.42 225.408 140.225 223.872C139.116 222.251 138.561 220.459 138.561 218.496C138.561 216.277 139.116 214.485 140.225 213.12C141.334 211.755 142.742 210.475 144.449 209.28C146.412 207.915 148.929 206.763 152.001 205.824C155.158 204.8 158.7 204.288 162.625 204.288C166.124 204.288 169.11 204.715 171.585 205.568C174.06 206.336 176.108 207.488 177.729 209.024C179.948 211.072 181.398 213.589 182.081 216.576C182.764 219.477 183.105 222.976 183.105 227.072V262.656C183.105 264.789 183.404 266.325 184.001 267.264C184.684 268.203 185.708 268.672 187.073 268.672C188.012 268.672 188.908 268.459 189.761 268.032C190.614 267.605 191.638 266.923 192.833 265.984L194.241 268.16C192.449 269.525 190.742 270.677 189.121 271.616C187.5 272.469 185.324 272.896 182.593 272.896C180.118 272.896 178.07 272.469 176.449 271.616C174.828 270.763 173.59 269.525 172.737 267.904C171.969 266.197 171.585 264.064 171.585 261.504C169.281 265.344 166.508 268.203 163.265 270.08C160.108 271.957 156.524 272.896 152.513 272.896ZM157.121 267.776C159.937 267.776 162.54 266.965 164.929 265.344C167.404 263.723 169.622 261.291 171.585 258.048V232.96C170.561 234.411 169.068 235.648 167.105 236.672C165.142 237.611 163.009 238.592 160.705 239.616C158.401 240.555 156.182 241.707 154.049 243.072C152.001 244.352 150.294 246.059 148.929 248.192C147.564 250.325 146.881 253.099 146.881 256.512C146.881 259.925 147.777 262.656 149.569 264.704C151.446 266.752 153.964 267.776 157.121 267.776ZM241.095 204.288C244.338 204.288 247.026 204.715 249.159 205.568C251.378 206.421 253.212 207.616 254.663 209.152C256.284 210.859 257.436 212.992 258.119 215.552C258.802 218.112 259.143 221.568 259.143 225.92V260.096C259.143 263.68 259.868 266.112 261.319 267.392C262.855 268.672 265.372 269.312 268.871 269.312V272C267.42 271.915 265.202 271.829 262.215 271.744C259.228 271.573 256.327 271.488 253.511 271.488C250.695 271.488 247.922 271.573 245.191 271.744C242.546 271.829 240.54 271.915 239.175 272V269.312C242.247 269.312 244.423 268.672 245.703 267.392C246.983 266.112 247.623 263.68 247.623 260.096V223.104C247.623 220.459 247.41 218.027 246.983 215.808C246.556 213.589 245.575 211.797 244.039 210.432C242.588 209.067 240.327 208.384 237.255 208.384C233.671 208.384 230.514 209.408 227.783 211.456C225.138 213.504 223.047 216.32 221.511 219.904C220.06 223.403 219.335 227.328 219.335 231.68V260.096C219.335 263.68 219.975 266.112 221.255 267.392C222.535 268.672 224.711 269.312 227.783 269.312V272C226.418 271.915 224.37 271.829 221.639 271.744C218.994 271.573 216.263 271.488 213.447 271.488C210.631 271.488 207.73 271.573 204.743 271.744C201.756 271.829 199.538 271.915 198.087 272V269.312C201.586 269.312 204.06 268.672 205.511 267.392C207.047 266.112 207.815 263.68 207.815 260.096V220.032C207.815 216.192 207.132 213.376 205.767 211.584C204.402 209.707 201.842 208.768 198.087 208.768V206.08C200.818 206.336 203.463 206.464 206.023 206.464C208.498 206.464 210.844 206.336 213.063 206.08C215.367 205.739 217.458 205.269 219.335 204.672V219.776C221.554 213.973 224.626 209.963 228.551 207.744C232.562 205.44 236.743 204.288 241.095 204.288ZM332.702 171.648V258.048C332.702 261.888 333.385 264.747 334.75 266.624C336.201 268.416 338.761 269.312 342.43 269.312V272C339.785 271.744 337.139 271.616 334.494 271.616C332.019 271.616 329.63 271.744 327.326 272C325.107 272.256 323.059 272.725 321.182 273.408V187.008C321.182 183.168 320.499 180.352 319.134 178.56C317.769 176.683 315.209 175.744 311.454 175.744V173.056C314.185 173.312 316.83 173.44 319.39 173.44C321.865 173.44 324.211 173.312 326.43 173.056C328.734 172.715 330.825 172.245 332.702 171.648ZM305.822 204.288C309.577 204.288 313.075 205.184 316.318 206.976C319.646 208.768 321.865 211.84 322.974 216.192L321.31 217.472C320.115 213.888 318.238 211.285 315.678 209.664C313.203 208.043 310.259 207.232 306.846 207.232C301.811 207.232 297.587 209.835 294.174 215.04C290.846 220.245 289.225 228.267 289.31 239.104C289.31 246.016 289.95 251.776 291.23 256.384C292.595 260.907 294.558 264.32 297.118 266.624C299.763 268.843 302.963 269.952 306.718 269.952C310.302 269.952 313.545 268.416 316.446 265.344C319.347 262.272 321.097 257.749 321.694 251.776L323.23 253.568C322.547 260.053 320.457 265.045 316.958 268.544C313.545 272.043 308.894 273.792 303.006 273.792C297.715 273.792 293.065 272.512 289.054 269.952C285.129 267.392 282.099 263.552 279.966 258.432C277.918 253.312 276.894 246.869 276.894 239.104C276.894 231.339 278.217 224.896 280.862 219.776C283.593 214.571 287.134 210.688 291.486 208.128C295.923 205.568 300.702 204.288 305.822 204.288ZM425.128 179.584C430.675 179.584 435.155 180.437 438.568 182.144C441.981 183.765 445.181 185.685 448.168 187.904C449.277 188.757 450.131 189.184 450.728 189.184C452.349 189.184 453.416 186.581 453.928 181.376H456.872C456.701 184.533 456.573 188.373 456.488 192.896C456.403 197.419 456.36 203.392 456.36 210.816H453.416C452.819 207.232 452.093 203.776 451.24 200.448C450.387 197.12 448.979 194.261 447.016 191.872C444.541 188.715 441.299 186.283 437.288 184.576C433.277 182.784 429.139 181.888 424.872 181.888C420.605 181.888 416.723 182.955 413.224 185.088C409.811 187.136 406.867 190.123 404.392 194.048C401.917 197.973 399.997 202.709 398.632 208.256C397.352 213.717 396.712 219.904 396.712 226.816C396.712 242.176 399.187 253.44 404.136 260.608C409.085 267.691 416.765 271.232 427.176 271.232C430.248 271.232 432.893 270.805 435.112 269.952C437.416 269.013 439.208 268.117 440.488 267.264C442.109 266.155 443.133 265.131 443.56 264.192C443.987 263.168 444.2 261.845 444.2 260.224V247.936C444.2 244.437 443.859 241.835 443.176 240.128C442.493 238.421 441.213 237.269 439.336 236.672C437.544 236.075 434.856 235.733 431.272 235.648V233.088C432.808 233.173 434.6 233.259 436.648 233.344C438.696 233.344 440.829 233.387 443.048 233.472C445.352 233.472 447.443 233.472 449.32 233.472C452.136 233.472 454.653 233.429 456.872 233.344C459.176 233.259 461.096 233.173 462.632 233.088V235.648C460.755 235.733 459.347 236.032 458.408 236.544C457.469 237.056 456.829 238.08 456.488 239.616C456.232 241.152 456.104 243.499 456.104 246.656V272H453.544C453.459 270.549 453.117 268.971 452.52 267.264C452.008 265.557 451.197 264.704 450.088 264.704C449.576 264.704 449.064 264.832 448.552 265.088C448.04 265.344 447.144 265.941 445.864 266.88C443.048 269.013 440.061 270.72 436.904 272C433.747 273.195 430.077 273.792 425.896 273.792C417.107 273.792 409.555 272 403.24 268.416C397.011 264.747 392.232 259.499 388.904 252.672C385.576 245.845 383.912 237.696 383.912 228.224C383.912 218.24 385.704 209.621 389.288 202.368C392.872 195.115 397.736 189.525 403.88 185.6C410.109 181.589 417.192 179.584 425.128 179.584ZM490.439 171.648V260.096C490.439 263.68 491.164 266.112 492.615 267.392C494.151 268.672 496.668 269.312 500.167 269.312V272C498.716 271.915 496.498 271.829 493.511 271.744C490.61 271.573 487.666 271.488 484.679 271.488C481.778 271.488 478.834 271.573 475.847 271.744C472.86 271.829 470.642 271.915 469.191 272V269.312C472.69 269.312 475.164 268.672 476.615 267.392C478.151 266.112 478.919 263.68 478.919 260.096V187.008C478.919 183.168 478.236 180.352 476.871 178.56C475.506 176.683 472.946 175.744 469.191 175.744V173.056C471.922 173.312 474.567 173.44 477.127 173.44C479.602 173.44 481.948 173.312 484.167 173.056C486.471 172.715 488.562 172.245 490.439 171.648ZM536.822 204.288C542.283 204.288 547.19 205.483 551.542 207.872C555.894 210.261 559.35 214.016 561.91 219.136C564.555 224.256 565.878 230.912 565.878 239.104C565.878 247.296 564.555 253.952 561.91 259.072C559.35 264.107 555.894 267.819 551.542 270.208C547.19 272.597 542.283 273.792 536.822 273.792C531.446 273.792 526.539 272.597 522.102 270.208C517.75 267.819 514.251 264.107 511.606 259.072C509.046 253.952 507.766 247.296 507.766 239.104C507.766 230.912 509.046 224.256 511.606 219.136C514.251 214.016 517.75 210.261 522.102 207.872C526.539 205.483 531.446 204.288 536.822 204.288ZM536.822 206.848C531.958 206.848 527.947 209.365 524.79 214.4C521.718 219.435 520.182 227.669 520.182 239.104C520.182 250.539 521.718 258.773 524.79 263.808C527.947 268.757 531.958 271.232 536.822 271.232C541.686 271.232 545.654 268.757 548.726 263.808C551.883 258.773 553.462 250.539 553.462 239.104C553.462 227.669 551.883 219.435 548.726 214.4C545.654 209.365 541.686 206.848 536.822 206.848ZM613.603 204.288C620.6 204.288 626.403 207.189 631.011 212.992C635.619 218.709 637.923 227.413 637.923 239.104C637.923 246.784 636.6 253.227 633.955 258.432C631.395 263.552 627.939 267.392 623.587 269.952C619.235 272.512 614.499 273.792 609.379 273.792C605.112 273.792 600.974 272.597 596.963 270.208C593.038 267.733 590.094 264.107 588.131 259.328L590.691 260.736C592.824 264.149 595.47 266.709 598.627 268.416C601.784 270.037 605.027 270.848 608.355 270.848C614.072 270.848 618.339 268.288 621.155 263.168C624.056 257.963 625.507 249.941 625.507 239.104C625.507 232.192 624.952 226.432 623.843 221.824C622.734 217.216 621.027 213.803 618.723 211.584C616.419 209.28 613.475 208.128 609.891 208.128C605.966 208.128 602.296 209.92 598.883 213.504C595.555 217.003 593.507 222.165 592.739 228.992L591.203 227.2C592.142 219.947 594.659 214.315 598.755 210.304C602.936 206.293 607.886 204.288 613.603 204.288ZM593.635 171.776V265.344C592.526 266.283 591.374 267.264 590.179 268.288C589.07 269.227 587.96 270.165 586.851 271.104C585.742 272.043 584.59 273.024 583.395 274.048L581.219 273.152C581.56 271.957 581.774 270.763 581.859 269.568C582.03 268.288 582.115 267.008 582.115 265.728V187.136C582.115 183.296 581.432 180.48 580.067 178.688C578.702 176.811 576.142 175.872 572.387 175.872V173.184C575.118 173.44 577.763 173.568 580.323 173.568C582.798 173.568 585.144 173.44 587.363 173.184C589.667 172.843 591.758 172.373 593.635 171.776ZM665.888 272.896C662.389 272.896 659.36 272.256 656.8 270.976C654.24 269.611 652.277 267.733 650.912 265.344C649.632 262.955 648.992 260.181 648.992 257.024C648.992 253.269 649.845 250.197 651.552 247.808C653.344 245.419 655.605 243.499 658.336 242.048C661.067 240.597 663.925 239.403 666.912 238.464C669.984 237.44 672.885 236.501 675.616 235.648C678.347 234.709 680.565 233.643 682.272 232.448C684.064 231.253 684.96 229.675 684.96 227.712V219.776C684.96 216.192 684.405 213.461 683.296 211.584C682.272 209.707 680.864 208.469 679.072 207.872C677.28 207.189 675.275 206.848 673.056 206.848C670.923 206.848 668.619 207.147 666.144 207.744C663.755 208.341 661.835 209.579 660.384 211.456C662.005 211.797 663.413 212.651 664.608 214.016C665.803 215.381 666.4 217.131 666.4 219.264C666.4 221.397 665.717 223.104 664.352 224.384C662.987 225.579 661.237 226.176 659.104 226.176C656.629 226.176 654.795 225.408 653.6 223.872C652.491 222.251 651.936 220.459 651.936 218.496C651.936 216.277 652.491 214.485 653.6 213.12C654.709 211.755 656.117 210.475 657.824 209.28C659.787 207.915 662.304 206.763 665.376 205.824C668.533 204.8 672.075 204.288 676 204.288C679.499 204.288 682.485 204.715 684.96 205.568C687.435 206.336 689.483 207.488 691.104 209.024C693.323 211.072 694.773 213.589 695.456 216.576C696.139 219.477 696.48 222.976 696.48 227.072V262.656C696.48 264.789 696.779 266.325 697.376 267.264C698.059 268.203 699.083 268.672 700.448 268.672C701.387 268.672 702.283 268.459 703.136 268.032C703.989 267.605 705.013 266.923 706.208 265.984L707.616 268.16C705.824 269.525 704.117 270.677 702.496 271.616C700.875 272.469 698.699 272.896 695.968 272.896C693.493 272.896 691.445 272.469 689.824 271.616C688.203 270.763 686.965 269.525 686.112 267.904C685.344 266.197 684.96 264.064 684.96 261.504C682.656 265.344 679.883 268.203 676.64 270.08C673.483 271.957 669.899 272.896 665.888 272.896ZM670.496 267.776C673.312 267.776 675.915 266.965 678.304 265.344C680.779 263.723 682.997 261.291 684.96 258.048V232.96C683.936 234.411 682.443 235.648 680.48 236.672C678.517 237.611 676.384 238.592 674.08 239.616C671.776 240.555 669.557 241.707 667.424 243.072C665.376 244.352 663.669 246.059 662.304 248.192C660.939 250.325 660.256 253.099 660.256 256.512C660.256 259.925 661.152 262.656 662.944 264.704C664.821 266.752 667.339 267.776 670.496 267.776ZM731.814 171.648V260.096C731.814 263.68 732.539 266.112 733.99 267.392C735.526 268.672 738.043 269.312 741.542 269.312V272C740.091 271.915 737.873 271.829 734.886 271.744C731.985 271.573 729.041 271.488 726.054 271.488C723.153 271.488 720.209 271.573 717.222 271.744C714.235 271.829 712.017 271.915 710.566 272V269.312C714.065 269.312 716.539 268.672 717.99 267.392C719.526 266.112 720.294 263.68 720.294 260.096V187.008C720.294 183.168 719.611 180.352 718.246 178.56C716.881 176.683 714.321 175.744 710.566 175.744V173.056C713.297 173.312 715.942 173.44 718.502 173.44C720.977 173.44 723.323 173.312 725.542 173.056C727.846 172.715 729.937 172.245 731.814 171.648ZM184.065 467.064V464.632C187.905 464.547 191.105 463.608 193.665 461.816C196.31 460.024 198.273 457.037 199.553 452.856C200.918 448.76 201.601 443.256 201.601 436.344V365.944C201.601 362.787 201.345 360.483 200.833 359.032C200.321 357.496 199.297 356.472 197.761 355.96C196.31 355.363 194.134 355.021 191.233 354.936V352.376C193.025 352.461 195.372 352.547 198.273 352.632C201.174 352.717 204.204 352.76 207.361 352.76C210.518 352.76 213.548 352.717 216.449 352.632C219.436 352.547 221.91 352.461 223.873 352.376V354.936C220.972 355.021 218.753 355.363 217.217 355.96C215.766 356.472 214.785 357.496 214.273 359.032C213.761 360.483 213.505 362.787 213.505 365.944V412.792C213.505 416.291 213.462 420.088 213.377 424.184C213.292 428.28 213.078 432.248 212.737 436.088C212.481 439.928 212.012 443.299 211.329 446.2C209.878 452.173 206.806 457.123 202.113 461.048C197.505 465.059 191.489 467.064 184.065 467.064ZM261.197 375.288C266.658 375.288 271.565 376.483 275.917 378.872C280.269 381.261 283.725 385.016 286.285 390.136C288.93 395.256 290.253 401.912 290.253 410.104C290.253 418.296 288.93 424.952 286.285 430.072C283.725 435.107 280.269 438.819 275.917 441.208C271.565 443.597 266.658 444.792 261.197 444.792C255.821 444.792 250.914 443.597 246.477 441.208C242.125 438.819 238.626 435.107 235.981 430.072C233.421 424.952 232.141 418.296 232.141 410.104C232.141 401.912 233.421 395.256 235.981 390.136C238.626 385.016 242.125 381.261 246.477 378.872C250.914 376.483 255.821 375.288 261.197 375.288ZM261.197 377.848C256.333 377.848 252.322 380.365 249.165 385.4C246.093 390.435 244.557 398.669 244.557 410.104C244.557 421.539 246.093 429.773 249.165 434.808C252.322 439.757 256.333 442.232 261.197 442.232C266.061 442.232 270.029 439.757 273.101 434.808C276.258 429.773 277.837 421.539 277.837 410.104C277.837 398.669 276.258 390.435 273.101 385.4C270.029 380.365 266.061 377.848 261.197 377.848ZM358.074 375.672V429.176C358.074 433.016 358.757 435.875 360.122 437.752C361.573 439.544 364.133 440.44 367.802 440.44V443.128C365.157 442.872 362.511 442.744 359.866 442.744C357.391 442.744 355.002 442.872 352.698 443.128C350.479 443.384 348.431 443.853 346.554 444.536V429.432C344.421 434.979 341.391 438.947 337.466 441.336C333.626 443.64 329.658 444.792 325.562 444.792C322.575 444.792 319.973 444.365 317.754 443.512C315.535 442.659 313.701 441.464 312.25 439.928C310.629 438.221 309.519 436.003 308.922 433.272C308.325 430.541 308.026 427.171 308.026 423.16V391.032C308.026 387.192 307.343 384.376 305.978 382.584C304.613 380.707 302.053 379.768 298.298 379.768V377.08C301.029 377.336 303.674 377.464 306.234 377.464C308.709 377.464 311.055 377.336 313.274 377.08C315.578 376.739 317.669 376.269 319.546 375.672V425.976C319.546 428.621 319.717 431.053 320.058 433.272C320.399 435.491 321.253 437.283 322.618 438.648C323.983 440.013 326.202 440.696 329.274 440.696C332.602 440.696 335.546 439.672 338.106 437.624C340.751 435.576 342.799 432.803 344.25 429.304C345.786 425.805 346.554 421.88 346.554 417.528V391.032C346.554 387.192 345.871 384.376 344.506 382.584C343.141 380.707 340.581 379.768 336.826 379.768V377.08C339.557 377.336 342.202 377.464 344.762 377.464C347.237 377.464 349.583 377.336 351.802 377.08C354.106 376.739 356.197 376.269 358.074 375.672ZM414.145 375.288C416.449 375.288 418.454 375.757 420.161 376.696C421.953 377.635 423.318 378.872 424.257 380.408C425.281 381.859 425.793 383.523 425.793 385.4C425.793 387.533 425.11 389.411 423.745 391.032C422.465 392.653 420.716 393.464 418.497 393.464C416.705 393.464 415.126 392.909 413.761 391.8C412.396 390.605 411.713 388.941 411.713 386.808C411.713 385.187 412.14 383.821 412.993 382.712C413.932 381.517 414.956 380.579 416.065 379.896C415.468 379.043 414.572 378.616 413.377 378.616C410.732 378.616 408.3 379.427 406.081 381.048C403.862 382.584 401.985 384.589 400.449 387.064C398.913 389.539 397.718 392.184 396.865 395C396.012 397.731 395.585 400.291 395.585 402.68V429.816C395.585 433.997 396.78 436.813 399.169 438.264C401.644 439.629 404.972 440.312 409.153 440.312V443C407.19 442.915 404.417 442.829 400.833 442.744C397.249 442.573 393.452 442.488 389.441 442.488C386.54 442.488 383.638 442.573 380.737 442.744C377.921 442.829 375.788 442.915 374.337 443V440.312C377.836 440.312 380.31 439.672 381.761 438.392C383.297 437.112 384.065 434.68 384.065 431.096V391.032C384.065 387.192 383.382 384.376 382.017 382.584C380.652 380.707 378.092 379.768 374.337 379.768V377.08C377.068 377.336 379.713 377.464 382.273 377.464C384.748 377.464 387.094 377.336 389.313 377.08C391.617 376.739 393.708 376.269 395.585 375.672V391.672C396.524 389.197 397.846 386.723 399.553 384.248C401.345 381.688 403.478 379.555 405.953 377.848C408.428 376.141 411.158 375.288 414.145 375.288ZM474.345 375.288C477.588 375.288 480.276 375.715 482.409 376.568C484.628 377.421 486.462 378.616 487.913 380.152C489.534 381.859 490.686 383.992 491.369 386.552C492.052 389.112 492.393 392.568 492.393 396.92V431.096C492.393 434.68 493.118 437.112 494.569 438.392C496.105 439.672 498.622 440.312 502.121 440.312V443C500.67 442.915 498.452 442.829 495.465 442.744C492.478 442.573 489.577 442.488 486.761 442.488C483.945 442.488 481.172 442.573 478.441 442.744C475.796 442.829 473.79 442.915 472.425 443V440.312C475.497 440.312 477.673 439.672 478.953 438.392C480.233 437.112 480.873 434.68 480.873 431.096V394.104C480.873 391.459 480.66 389.027 480.233 386.808C479.806 384.589 478.825 382.797 477.289 381.432C475.838 380.067 473.577 379.384 470.505 379.384C466.921 379.384 463.764 380.408 461.033 382.456C458.388 384.504 456.297 387.32 454.761 390.904C453.31 394.403 452.585 398.328 452.585 402.68V431.096C452.585 434.68 453.225 437.112 454.505 438.392C455.785 439.672 457.961 440.312 461.033 440.312V443C459.668 442.915 457.62 442.829 454.889 442.744C452.244 442.573 449.513 442.488 446.697 442.488C443.881 442.488 440.98 442.573 437.993 442.744C435.006 442.829 432.788 442.915 431.337 443V440.312C434.836 440.312 437.31 439.672 438.761 438.392C440.297 437.112 441.065 434.68 441.065 431.096V391.032C441.065 387.192 440.382 384.376 439.017 382.584C437.652 380.707 435.092 379.768 431.337 379.768V377.08C434.068 377.336 436.713 377.464 439.273 377.464C441.748 377.464 444.094 377.336 446.313 377.08C448.617 376.739 450.708 376.269 452.585 375.672V390.776C454.804 384.973 457.876 380.963 461.801 378.744C465.812 376.44 469.993 375.288 474.345 375.288ZM538.816 375.288C546.325 375.288 552.171 377.592 556.352 382.2C560.619 386.723 562.752 393.805 562.752 403.448H517.568L517.44 401.016H550.464C550.635 396.835 550.293 392.995 549.44 389.496C548.587 385.912 547.221 383.053 545.344 380.92C543.552 378.787 541.205 377.72 538.304 377.72C534.379 377.72 530.88 379.683 527.808 383.608C524.821 387.533 523.029 393.763 522.432 402.296L522.816 402.808C522.645 404.088 522.517 405.496 522.432 407.032C522.347 408.568 522.304 410.104 522.304 411.64C522.304 417.443 523.243 422.435 525.12 426.616C526.997 430.797 529.429 433.997 532.416 436.216C535.488 438.349 538.645 439.416 541.888 439.416C544.448 439.416 546.88 439.032 549.184 438.264C551.488 437.411 553.621 436.045 555.584 434.168C557.547 432.291 559.253 429.773 560.704 426.616L563.264 427.64C562.325 430.456 560.789 433.187 558.656 435.832C556.523 438.477 553.835 440.653 550.592 442.36C547.349 443.981 543.595 444.792 539.328 444.792C533.184 444.792 527.893 443.384 523.456 440.568C519.104 437.752 515.733 433.869 513.344 428.92C511.04 423.885 509.888 418.125 509.888 411.64C509.888 404.131 511.083 397.688 513.472 392.312C515.861 386.851 519.232 382.669 523.584 379.768C527.936 376.781 533.013 375.288 538.816 375.288ZM630.732 377.08V379.64C629.111 379.811 627.617 380.536 626.252 381.816C624.887 383.096 623.607 385.357 622.412 388.6L601.42 443.64H599.244L575.692 386.936C574.071 383.608 572.449 381.603 570.828 380.92C569.292 380.152 568.012 379.768 566.988 379.768V377.08C568.865 377.336 570.828 377.549 572.876 377.72C574.924 377.805 577.143 377.848 579.532 377.848C582.177 377.848 584.951 377.763 587.852 377.592C590.839 377.421 593.612 377.251 596.172 377.08V379.768C594.039 379.768 592.119 379.939 590.412 380.28C588.791 380.536 587.767 381.432 587.34 382.968C586.913 384.419 587.425 386.936 588.876 390.52L604.62 429.56L603.852 429.816L618.444 391.672C619.553 388.856 619.98 386.637 619.724 385.016C619.553 383.309 618.7 382.029 617.164 381.176C615.628 380.323 613.324 379.811 610.252 379.64V377.08C611.788 377.165 613.111 377.251 614.22 377.336C615.329 377.336 616.396 377.379 617.42 377.464C618.529 377.464 619.724 377.464 621.004 377.464C622.967 377.464 624.716 377.421 626.252 377.336C627.873 377.251 629.367 377.165 630.732 377.08ZM601.42 443.64L597.068 454.776C596.215 456.909 595.319 458.701 594.38 460.152C593.527 461.603 592.588 462.797 591.564 463.736C590.199 465.016 588.577 465.869 586.7 466.296C584.823 466.808 583.116 467.064 581.58 467.064C579.959 467.064 578.465 466.765 577.1 466.168C575.82 465.571 574.796 464.675 574.028 463.48C573.26 462.371 572.876 461.005 572.876 459.384C572.876 457.336 573.473 455.672 574.668 454.392C575.863 453.197 577.527 452.6 579.66 452.6C581.452 452.6 582.988 453.112 584.268 454.136C585.548 455.16 586.188 456.653 586.188 458.616C586.188 460.067 585.847 461.261 585.164 462.2C584.481 463.139 583.671 463.864 582.732 464.376C582.903 464.461 583.031 464.504 583.116 464.504C583.287 464.504 583.415 464.504 583.5 464.504C585.804 464.504 587.852 463.693 589.644 462.072C591.436 460.536 593.015 458.019 594.38 454.52L598.988 442.616L601.42 443.64ZM657.749 375.288C661.162 375.288 664.064 375.843 666.453 376.952C668.842 378.061 670.592 379.085 671.701 380.024C674.517 382.328 676.224 380.792 676.821 375.416H679.765C679.594 377.805 679.466 380.664 679.381 383.992C679.296 387.235 679.253 391.629 679.253 397.176H676.309C675.797 394.019 674.901 390.947 673.621 387.96C672.426 384.973 670.634 382.541 668.245 380.664C665.856 378.701 662.741 377.72 658.901 377.72C655.914 377.72 653.397 378.573 651.349 380.28C649.386 381.901 648.405 384.333 648.405 387.576C648.405 390.136 649.173 392.355 650.709 394.232C652.245 396.024 654.25 397.731 656.725 399.352C659.2 400.888 661.888 402.595 664.789 404.472C668.032 406.52 670.976 408.611 673.621 410.744C676.266 412.877 678.357 415.224 679.893 417.784C681.514 420.344 682.325 423.373 682.325 426.872C682.325 430.797 681.301 434.083 679.253 436.728C677.205 439.373 674.517 441.379 671.189 442.744C667.946 444.109 664.362 444.792 660.437 444.792C658.56 444.792 656.768 444.621 655.061 444.28C653.44 444.024 651.861 443.597 650.325 443C649.472 442.573 648.576 442.061 647.637 441.464C646.784 440.867 645.93 440.227 645.077 439.544C644.224 438.861 643.456 438.904 642.773 439.672C642.09 440.355 641.578 441.763 641.237 443.896H638.293C638.464 441.165 638.592 437.837 638.677 433.912C638.762 429.987 638.805 424.781 638.805 418.296H641.749C642.346 423.075 643.2 427.256 644.309 430.84C645.418 434.424 647.168 437.24 649.557 439.288C651.946 441.251 655.274 442.232 659.541 442.232C661.248 442.232 662.954 441.848 664.661 441.08C666.453 440.312 667.946 439.032 669.141 437.24C670.336 435.448 670.933 433.059 670.933 430.072C670.933 426.317 669.568 423.245 666.837 420.856C664.106 418.467 660.65 415.949 656.469 413.304C653.397 411.341 650.496 409.379 647.765 407.416C645.12 405.453 642.944 403.235 641.237 400.76C639.616 398.285 638.805 395.299 638.805 391.8C638.805 387.96 639.658 384.845 641.365 382.456C643.157 379.981 645.504 378.189 648.405 377.08C651.306 375.885 654.421 375.288 657.749 375.288Z" fill="white"/>
</svg>
