<svg width="22" height="16" viewBox="0 0 22 16" fill="none" xmlns="http://www.w3.org/2000/svg">
<g clipPath="url(#clip0_4039_71)">
<path d="M21.56 2.90521C21.32 1.99521 20.6 1.27521 19.69 1.03521C18.04 0.595215 11.42 0.595215 11.42 0.595215C11.42 0.595215 4.8 0.595215 3.15 1.03521C2.24 1.27521 1.52 1.99521 1.28 2.90521C0.839996 4.55521 0.839996 7.99521 0.839996 7.99521C0.839996 7.99521 0.839996 11.4352 1.28 13.0852C1.52 13.9952 2.24 14.7152 3.15 14.9552C4.8 15.3952 11.42 15.3952 11.42 15.3952C11.42 15.3952 18.04 15.3952 19.69 14.9552C20.6 14.7152 21.32 13.9952 21.56 13.0852C22 11.4352 22 7.99521 22 7.99521C22 7.99521 22 4.55521 21.56 2.90521ZM9.3 11.1752V4.82521L14.8 7.99521L9.3 11.1652V11.1752Z" fill="#EFEBE5"/>
</g>
<defs>
<clipPath id="clip0_4039_71">
<rect width="21.16" height="14.81" fill="white" transform="translate(0.839996 0.595215)"/>
</clipPath>
</defs>
</svg>
