<svg width="14" height="18" viewBox="0 0 14 18" fill="none" xmlns="http://www.w3.org/2000/svg">
<path d="M1.16675 7.33747C1.16604 6.4382 1.37324 5.55095 1.77218 4.74501C2.17112 3.93908 2.75099 3.2363 3.46649 2.69156C4.182 2.14682 5.01375 1.77488 5.89679 1.6048C6.77982 1.43471 7.69023 1.47109 8.55688 1.71109C9.42353 1.95108 10.223 2.3882 10.8927 2.98829C11.5625 3.58837 12.0844 4.33518 12.4178 5.17038C12.7511 6.00557 12.8869 6.90653 12.8144 7.80287C12.742 8.69921 12.4633 9.56667 12.0001 10.3375C11.5263 10.9692 10.9651 11.5303 10.3334 12.0041C9.59486 12.6998 9.02483 13.5548 8.66675 14.5041C8.40815 14.9928 8.0447 15.4183 7.60241 15.75C7.16012 16.0818 6.64994 16.3117 6.10841 16.4232C5.56688 16.5346 5.00739 16.525 4.47002 16.3949C3.93265 16.2649 3.43069 16.0176 3.00008 15.6708M4.50008 7.33747C4.49508 6.91923 4.5951 6.50641 4.79097 6.13684C4.98684 5.76727 5.27231 5.45275 5.62123 5.22208C5.97015 4.99142 6.37137 4.85199 6.78814 4.81656C7.2049 4.78113 7.6239 4.85083 8.00675 5.01928C8.3896 5.18774 8.72407 5.44956 8.97951 5.78076C9.23496 6.11197 9.40323 6.50197 9.4689 6.91506C9.53457 7.32814 9.49555 7.7511 9.35541 8.14519C9.21526 8.53929 8.97848 8.89192 8.66675 9.1708" stroke="#253143" strokeWidth="1.5" strokeLinecap="round" strokeLinejoin="round"/>
</svg>
