<svg width="16" height="16" viewBox="0 0 16 16" fill="none" xmlns="http://www.w3.org/2000/svg">
<path d="M15.5064 10.6691C15.5064 10.9455 15.2824 11.1695 15.006 11.1695H12.8375V12.8376H14.3388C14.724 12.8376 14.9648 13.2546 14.7721 13.5882C14.6827 13.7431 14.5175 13.8385 14.3388 13.8385H12.8375V15.3397C12.8375 15.725 12.4205 15.9657 12.0868 15.7731C11.932 15.6837 11.8366 15.5185 11.8366 15.3397V10.6691C11.8366 10.3927 12.0607 10.1687 12.3371 10.1687H15.006C15.2824 10.1687 15.5064 10.3927 15.5064 10.6691ZM4.49705 12.3372C4.49705 13.5348 3.52618 14.5057 2.32855 14.5057H1.4945V15.3397C1.4945 15.725 1.07748 15.9657 0.743865 15.7731C0.589034 15.6837 0.493652 15.5185 0.493652 15.3397V10.6691C0.493652 10.3927 0.717696 10.1687 0.994077 10.1687H2.32855C3.52614 10.1687 4.49705 11.1396 4.49705 12.3372ZM3.4962 12.3372C3.4962 11.6923 2.9734 11.1695 2.32855 11.1695H1.4945V13.5048H2.32855C2.9734 13.5048 3.4962 12.982 3.4962 12.3372ZM10.5022 13.0044C10.5022 14.5705 9.23251 15.8401 7.66641 15.8402H6.33195C6.05556 15.8402 5.83152 15.6161 5.83152 15.3397V10.6691C5.83152 10.3927 6.05557 10.1687 6.33195 10.1687H7.66641C9.23255 10.1687 10.5022 11.4383 10.5022 13.0044ZM9.50131 13.0044C9.50131 11.9911 8.67977 11.1696 7.66641 11.1695H6.83237V14.8393H7.66641C8.67977 14.8393 9.50131 14.0178 9.50131 13.0044ZM0.493652 7.33293V1.32782C0.493652 0.682938 1.01643 0.160156 1.66131 0.160156H9.66812C9.80108 0.16005 9.92862 0.212869 10.0226 0.30695L14.6932 4.97759C14.7868 5.07148 14.8393 5.19866 14.8392 5.33122V7.33293C14.8392 7.71815 14.4222 7.95892 14.0885 7.76631C13.9337 7.67691 13.8383 7.51171 13.8383 7.33293V5.83164H9.66812C9.39174 5.83164 9.1677 5.6076 9.1677 5.33122V1.16101H1.66131C1.56918 1.16101 1.4945 1.23569 1.4945 1.32782V7.33293C1.4945 7.71815 1.07748 7.95892 0.743865 7.76631C0.589034 7.67691 0.493652 7.51171 0.493652 7.33293ZM10.1685 4.83079H13.1311L10.1685 1.86828V4.83079Z" fill="#EFEBE5"/>
</svg>
